<svg xmlns="http://www.w3.org/2000/svg" version="1.0" width="400" height="400" viewBox="900 200 600 1400" preserveAspectRatio="xMidYMid meet">

<g transform="translate(0.000000,1800.000000) scale(0.100000,-0.100000)" fill="oklch(54.6% 0.245 262.881)" stroke="none">
<path d="M9640 13124 c-405 -41 -742 -157 -1046 -360 -523 -349 -839 -863 -926 -1504 -19 -139 -19 -4381 0 -4520 66 -488 260 -895 580 -1218 181 -182 356 -308 587 -422 835 -413 1807 -253 2441 401 82 85 222 261 1164 1475 851 1095 799 1027 1090 1404 134 173 297 383 361 467 l118 151 -112 129 c-144 166 -346 399 -778 898 -190 220 -407 470 -482 556 l-135 156 324 414 c178 228 327 414 333 414 12 0 -48 71 1086 -1270 549 -649 1021 -1206 1048 -1237 l50 -58 -99 -129 c-55 -71 -180 -234 -280 -362 -99 -129 -465 -603 -814 -1054 -349 -451 -709 -917 -800 -1035 -91 -118 -396 -513 -678 -877 -282 -365 -512 -665 -512 -668 0 -3 510 -4 1133 -3 1111 4 1134 4 1252 26 326 59 597 164 849 329 144 94 227 162 356 292 333 335 524 735 585 1221 22 184 23 4318 0 4512 -84 719 -502 1315 -1150 1640 -306 154 -589 225 -925 233 -245 5 -413 -16 -636 -81 -346 -100 -738 -350 -952 -607 -106 -127 -685 -867 -1302 -1662 -214 -277 -595 -768 -747 -965 -83 -107 -257 -332 -387 -500 -130 -168 -235 -308 -233 -312 2 -6 1209 -1402 1451 -1678 36 -41 66 -78 66 -82 0 -8 -658 -812 -668 -815 -4 -1 -23 17 -42 41 -19 24 -107 128 -195 231 -88 104 -187 221 -220 259 -211 250 -1291 1526 -1351 1596 -223 261 -374 443 -374 450 0 4 24 39 53 76 1367 1761 1807 2327 2162 2784 237 305 435 561 439 569 18 28 -221 243 -404 364 -267 176 -600 294 -920 326 -86 8 -296 11 -360 5z"/>
</g>
</svg>